The Mill and the Cross (2011) 1080p MKV x264 AC3+DTS NL Subs
.
[IMG]http://img4.imageshack.us/img4/3449/tmatc2011.jpg[/IMG]
.
Zweden / Polen
Drama
92 minuten

geregisseerd door Lech Majewski
met Rutger Hauer, Charlotte Rampling en Michael York

De Poolse regisseur en multimediakunstenaar Lech Majewski en de Amerikaanse scenarioschrijver annex kunstkenner Michael Gibson lieten zich inspireren door het schilderij 'De kruisdraging' van de Vlaamse schilder Pieter Bruegel de Oude. Op het doek uit 1564 staan behalve een molen en het kruis meer dan 500 mensen: van Jezus, Maria en Johannes de Evangelist tot allerlei losse groepjes figuren. Majewski en Gibson lichten twaalf personages uit het schilderij, brengen hen tot leven en combineren hun verhalen met de totstandkoming van het doek. Het lijden van Christus wordt verweven met de onderdrukking van de Vlaamse bevolking door de Spanjaarden in deze film.

Vanaf 23 februari in de bioscoop
. 
http://www.moviemeter.nl/film/74272
.
PLOT
.
Behind every great painting lies an even greater story
. 
http://www.imdb.com/title/tt1324055/
.
INFO
.
General
Format                           : Matroska
Format version                   : Version 2
File size                        : 6.97 GiB
Duration                         : 1h 35mn
Overall bit rate                 : 10.4 Mbps
Encoded date                     : UTC 2012-01-17 21:21:17
Writing application              : mkvmerge v5.2.0 ('I can't explain') built on Dec 18 2011 18:12:03
Writing library                  : libebml v1.2.3 + libmatroska v1.3.0

Video
ID                               : 1
Format                           : AVC
Format/Info                      : Advanced Video Codec
Format profile                   : High@L4.1
Format settings, CABAC           : Yes
Format settings, ReFrames        : 4 frames
Codec ID                         : V_MPEG4/ISO/AVC
Duration                         : 1h 35mn
Bit rate                         : 8 299 Kbps
Width                            : 1 920 pixels
Height                           : 1 080 pixels
Display aspect ratio             : 16:9
Frame rate                       : 23.976 fps
Color space                      : YUV
Chroma subsampling               : 4:2:0
Bit depth                        : 8 bits
Scan type                        : Progressive
Bits/(Pixel*Frame)               : 0.167
Stream size                      : 5.39 GiB (77%)
Writing library                  : x264 core 120 r2145 748fe16
Encoding settings                : cabac=1 / ref=4 / deblock=1:0:0 / analyse=0x3:0x133 / me=umh / subme=7 / psy=1 / psy_rd=1.00:0.00 / mixed_ref=1 / me_range=16 / chroma_me=1 / trellis=1 / 8x8dct=1 / cqm=0 / deadzone=21,11 / fast_pskip=0 / chroma_qp_offset=-2 / threads=12 / sliced_threads=0 / nr=0 / decimate=1 / interlaced=0 / bluray_compat=0 / constrained_intra=0 / bframes=3 / b_pyramid=2 / b_adapt=1 / b_bias=0 / direct=1 / weightb=1 / open_gop=0 / weightp=2 / keyint=250 / keyint_min=23 / scenecut=40 / intra_refresh=0 / rc_lookahead=40 / rc=2pass / mbtree=1 / bitrate=8299 / ratetol=1.0 / qcomp=0.60 / qpmin=0 / qpmax=69 / qpstep=4 / cplxblur=20.0 / qblur=0.5 / ip_ratio=1.40 / aq=1:1.00
Language                         : English
Default                          : Yes
Forced                           : No

Audio #1
ID                               : 2
Format                           : DTS
Format/Info                      : Digital Theater Systems
Codec ID                         : A_DTS
Duration                         : 1h 35mn
Bit rate mode                    : Constant
Bit rate                         : 1 510 Kbps
Channel(s)                       : 6 channels
Channel positions                : Front: L C R, Side: L R, LFE
Sampling rate                    : 48.0 KHz
Bit depth                        : 24 bits
Compression mode                 : Lossy
Stream size                      : 1.01 GiB (14%)
Title                            : DTS
Language                         : English
Default                          : Yes
Forced                           : No

Audio #2
ID                               : 3
Format                           : AC-3
Format/Info                      : Audio Coding 3
Mode extension                   : CM (complete main)
Codec ID                         : A_AC3
Duration                         : 1h 35mn
Bit rate mode                    : Constant
Bit rate                         : 640 Kbps
Channel(s)                       : 6 channels
Channel positions                : Front: L C R, Side: L R, LFE
Sampling rate                    : 48.0 KHz
Bit depth                        : 16 bits
Compression mode                 : Lossy
Stream size                      : 438 MiB (6%)
Title                            : AC3
Language                         : English
Default                          : No
Forced                           : No

Text
ID                               : 4
Format                           : UTF-8
Codec ID                         : S_TEXT/UTF8
Codec ID/Info                    : UTF-8 Plain Text
Language                         : Dutch
Default                          : Yes
Forced                           : No
.
Vertaling: SRT-TEAM
.
Enjoy
